<svg xmlns="http://www.w3.org/2000/svg" viewBox="0 0 485 404"><defs><linearGradient id="fcA" gradientUnits="userSpaceOnUse" x1="27" y1="0" x2="478" y2="0"><stop offset="0" stop-color="#087cff"/><stop offset="0.08" stop-color="#0095fd"/><stop offset="0.15" stop-color="#00aafd"/><stop offset="0.24" stop-color="#00c4ff"/><stop offset="0.48" stop-color="#048ffe"/><stop offset="0.7" stop-color="#4250fe"/><stop offset="0.93" stop-color="#8e23fe"/><stop offset="1" stop-color="#9618fd"/></linearGradient><linearGradient id="fcB" gradientUnits="userSpaceOnUse" x1="6" y1="0" x2="385" y2="0"><stop offset="0" stop-color="#6a10f8"/><stop offset="0.03" stop-color="#6f1ef7"/><stop offset="0.1" stop-color="#2943fe"/><stop offset="0.18" stop-color="#027dfe"/><stop offset="0.29" stop-color="#008afd"/><stop offset="0.5" stop-color="#0093fe"/><stop offset="0.63" stop-color="#1071fd"/><stop offset="0.76" stop-color="#354bfd"/><stop offset="0.95" stop-color="#632bfe"/><stop offset="1" stop-color="#6a28fe"/></linearGradient></defs><g fill="none" stroke-width="1.4" vector-effect="non-scaling-stroke"><path stroke="url(#fcA)" vector-effect="non-scaling-stroke" d="M27,242 L31,243 L36,241 L50,229 L139,143 L192,89 L206,84 L398,83 L403,81 L476,9 L476,6 L169,6 L159,8 L151,12 L138,23 L82,99 L47,187 L44,198 L38,210 L35,221 L31,228Z"/><path stroke="url(#fcB)" vector-effect="non-scaling-stroke" d="M383,142 L195,141 L182,147 L63,260 L48,291 L27,346 L14,375 L7,396 L26,384 L125,311 L133,302 L190,221 L195,216 L200,214 L308,214 L315,212 L383,144Z"/></g></svg>